<svg
      xmlns="http://www.w3.org/2000/svg"
      width="110"
      height="110"
      viewBox="0 0 110 110"
    >
      <path d="M0 0h110v110H0z" fill="#FD0101" />
      <path
        d="M3.911 3.911h68.933v34.222H38.133l0.489 3.911h0.978l0.489 2.444h0.978l0.978 4.4h0.978c2.155 4.6 2.155 4.6 2.444 6.844h0.978l0.489 2.933h0.978c0.615 1.421 0.978 2.345 0.978 3.911h0.978l0.489 2.933h0.978c0.615 1.421 0.978 2.345 0.978 3.911h-0.978v0.978h-1.956v0.978c-3.735 0.866 -7.332 1.072 -11.153 1.07l-1.326 0c-2.407 -0.02 -4.704 -0.176 -7.077 -0.581v-0.978l-4.4 -0.489v-0.978l-1.13 -0.214C22.978 68.933 22.978 68.933 21.511 68.444v-0.978l-1.956 -0.489v-0.978l-2.444 -0.489 -0.489 -1.467a242.489 242.489 0 0 0 -1.956 -0.489c-0.781 -0.745 -0.781 -0.745 -1.497 -1.65 -0.726 -0.904 -1.403 -1.742 -2.26 -2.525C10.267 58.667 10.267 58.667 10.267 57.2l-1.467 -0.489 -0.489 -2.933h-0.978c-0.643 -1.77 -0.978 -2.98 -0.978 -4.889h-0.978c-0.575 -1.796 -0.525 -3.505 -0.489 -5.378H3.911z"
        fill="#FEFBFB"
      />
      <path
        d="M41.067 40.089h64.533l-0.978 3.422h-0.978l-0.489 2.444h-0.978l-0.978 4.4h-0.978l-0.489 2.933h-0.978l-0.214 1.131C98.267 55.733 98.267 55.733 97.778 57.2h-0.978l-0.489 2.933h-0.978l-0.978 3.911h-0.978v1.467h-0.978l-0.122 1.222c-0.447 2.087 -1.306 3.761 -2.322 5.622h-0.978l-0.978 4.4h-0.978l-0.214 1.406C86.533 79.689 86.533 79.689 86.044 80.667h-0.978l-0.489 2.933h-0.978l-0.214 1.406C83.111 86.533 83.111 86.533 82.622 87.511h-0.978l-0.489 2.933h-0.978l-0.153 1.039c-0.382 1.597 -1.031 2.895 -1.803 4.339h-0.978l-0.978 4.4h-0.978l-0.489 2.444h-0.978l-0.489 1.956 -0.489 -0.978h-0.978l-0.489 -2.933h-0.978q-0.616 -1.297 -1.222 -2.597l-0.687 -1.461C67.956 95.333 67.956 95.333 67.956 93.867h-0.978a204.356 204.356 0 0 1 -0.978 -1.864l-0.55 -1.049C65.022 89.956 65.022 89.956 65.022 88.489h-0.978l-0.978 -4.4h-0.978l-0.978 -3.911h-0.978l-0.489 -2.933h-0.978l-0.489 -2.933h-0.978c-0.615 -1.421 -0.978 -2.345 -0.978 -3.911h-0.978l-0.489 -2.933h-0.978l-0.978 -3.911h-0.978l-0.489 -2.933h-0.978q-0.616 -1.297 -1.222 -2.597l-0.687 -1.461C47.911 55.244 47.911 55.244 47.911 53.778h-0.978l-0.489 -2.933h-0.978l-0.489 -2.444h-0.978l-0.978 -4.4h-0.978c-0.615 -1.421 -0.978 -2.345 -0.978 -3.911"
        fill="#FEFCFC"
      />
      <path
        d="M0 0h110v110H0zm1.956 1.956v106.578h106.578V1.956z"
        fill="#FDF6F5"
      />
      <path
        d="M1.956 1.956h106.578v106.578H1.956zm0.489 0.489v105.6h105.6V2.444h-35.689v0.978L4.4 3.911l0.489 -1.467z"
        fill="#F8272A"
      />
      <path
        d="M108.533 0h1.467v110l-2.933 -0.489a35.2 35.2 0 0 0 -2.002 -0.068l-1.127 -0.008 -1.213 -0.001 -1.308 -0.007c-1.443 -0.008 -2.887 -0.012 -4.33 -0.016l-3.108 -0.015q-4.217 -0.02 -8.432 -0.033c-2.938 -0.011 -5.876 -0.024 -8.815 -0.037q-8.344 -0.036 -16.689 -0.067 -9.501 -0.037 -19.001 -0.078Q21.498 109.097 1.956 109.022v-0.489h106.578l-0.124 -23.494 -0.073 -14.691q-0.057 -11.672 -0.119 -23.344 -0.046 -8.499 -0.087 -16.999 -0.022 -4.503 -0.047 -9.005 -0.024 -4.234 -0.042 -8.468 -0.007 -1.559 -0.017 -3.116 -0.013 -2.119 -0.02 -4.238l-0.01 -1.26C107.988 1.089 107.988 1.089 108.533 0"
        fill="#FDE9E7"
      />
      <path
        d="m38.133 38.133 0.978 1.956h1.956c0.615 1.421 0.978 2.345 0.978 3.911h0.978l0.978 4.4h0.978l0.489 2.444h0.978l0.489 2.933h0.978c2.155 4.6 2.155 4.6 2.444 6.844h0.978l0.489 2.933h0.978l0.978 2.933 -1.467 0.489 -0.489 0.978 -0.489 -2.444h-0.978l-0.489 -2.933h-0.978c-0.615 -1.421 -0.978 -2.345 -0.978 -3.911h-0.978l-0.489 -2.933h-0.978q-0.616 -1.297 -1.222 -2.597l-0.687 -1.461C43.022 50.356 43.022 50.356 43.022 48.889h-0.978l-0.978 -4.4h-0.978l-0.489 -2.444h-0.978z"
        fill="#F61719"
      />
      <path
        d="m38.133 38.133 0.978 1.956h1.956l0.978 2.933h-1.467l-0.489 1.467 -0.489 -2.444h-0.978z"
        fill="#F52123"
      />
      <path
        d="M43.511 48.4h1.467v1.956h-0.978l0.489 2.444c-1.057 -1.057 -1.248 -1.492 -1.467 -2.933z"
        fill="#F4262A"
      />
    </svg>